<svg version="1.2" xmlns="http://www.w3.org/2000/svg" viewBox="0 0 312 165" width="312" height="165">
	<title>5639947-ai</title>
	<style>
		.s0 { fill: #f5fcff } 
		.s1 { fill: #bde7ff } 
		.s2 { fill: #ffffff } 
	</style>
	<g id="BACKGROUND">
	</g>
	<g id="OBJECTS">
		<g id="&lt;Group&gt;">
			<g id="&lt;Group&gt;">
				<g id="&lt;Group&gt;">
				</g>
				<g id="&lt;Group&gt;">
				</g>
				<g id="&lt;Group&gt;">
				</g>
				<g id="&lt;Group&gt;">
				</g>
				<g id="&lt;Group&gt;">
				</g>
				<g id="&lt;Group&gt;">
					<path id="&lt;Path&gt;" class="s0" d="m67.8 75.5c0 0-26.6-14.5-38.7 5.7-12.1 20.2 15.3 38.7 39.5 27.4 0 0 7.1 27 39.4 29.2 32.7 2.2 38.9-17.9 38.9-17.9 0 0 10.5 28.3 50 25 39.6-3.2 41.2-34.7 41.2-34.7 0 0 31.4 2.5 28.2-20.1-3.2-22.6-28.2-18.6-28.2-18.6 0 0-1.7-33.7-39.6-40.3-44-7.7-57.3 23.4-57.3 23.4 0 0-11.3-12.1-27.4-8.9-16.1 3.2-17.7 15.3-17.7 15.3 0 0-8.9-14.5-23.6-5.8-11.6 6.9-4.7 20.3-4.7 20.3z"/>
					<path id="&lt;Path&gt;" class="s1" d="m266.5 92c-4.2 4.6-11.9 9.5-25.8 10.9-28.3 2.8-37.7-12.8-37.7-12.8 6.2 11.6 14.3 15.6 14.3 15.6 0 0-11.2 24.6-34.2 22.4-23.1-2.1-32.4-19-32.4-19 11.5-3.4 15.5-15.9 15.5-15.9 0 0-3.7 4.7-20.5 7.5-16.8 2.8-26.8-11.2-26.8-11.2 4.4 10.9 13.7 17.5 13.7 17.5 0 0-10 12.7-34.9 9.6-24.9-3.1-27.1-24-27.1-24 0 0-5.3 14-27.7 9.7-11.2-2.2-15-9.3-16.1-15.9-5.1 17.9 19.7 32.5 41.8 22.2 0 0 7.1 27 39.4 29.2 32.7 2.2 38.9-17.9 38.9-17.9 0 0 10.5 28.3 50 25 39.6-3.2 41.2-34.7 41.2-34.7 0 0 29.6 2.3 28.4-18.2z"/>
					<path id="&lt;Path&gt;" class="s2" d="m198.1 42c24.6 4.2 34.1 13.7 37.4 18.4q-0.2-0.7-0.5-1.3c-1.2-2.4-2.9-5.5-4.7-8.8-5.6-8.1-15.2-16.2-31.8-19.1-44-7.7-57.3 23.4-57.3 23.4 0 0-11.3-12.1-27.4-8.9-16.1 3.2-17.7 15.3-17.7 15.3 0 0-8.9-14.5-23.6-5.8-6.5 3.9-7.2 9.8-6.5 14.2 1.4-2.6 5.1-7.9 12-8.5 11.5-1 16.9 11.5 16.9 11.5 0 0 7.4-18.6 25.5-17.4 12.8 0.9 16.9 8.6 16.9 8.6 0 0-4.6 2.9-9.3 10 0 0 20.8-12.5 36.3-3.6 0 0-9.6-9.8-15.5-8.9 0 0 16-24.7 49.3-19.1z"/>
				</g>
				<g id="&lt;Group&gt;">
				</g>
				<g id="&lt;Group&gt;">
				</g>
				<g id="&lt;Group&gt;">
				</g>
				<g id="&lt;Group&gt;">
				</g>
				<g id="&lt;Group&gt;">
				</g>
				<g id="&lt;Group&gt;">
				</g>
				<g id="&lt;Group&gt;">
					<g id="&lt;Group&gt;">
					</g>
				</g>
				<g id="&lt;Group&gt;">
					<g id="&lt;Group&gt;">
					</g>
				</g>
			</g>
		</g>
	</g>
</svg>