<svg version="1.2" xmlns="http://www.w3.org/2000/svg" viewBox="0 0 300 167" width="300" height="167">
	<title>5639947-ai</title>
	<style>
		.s0 { fill: #f5fcff } 
		.s1 { fill: #bde7ff } 
		.s2 { fill: #ffffff } 
		.s3 { fill: #bcd1ca } 
	</style>
	<g id="BACKGROUND">
	</g>
	<g id="OBJECTS">
		<g id="&lt;Group&gt;">
			<g id="&lt;Group&gt;">
				<g id="&lt;Group&gt;">
				</g>
				<g id="&lt;Group&gt;">
				</g>
				<g id="&lt;Group&gt;">
				</g>
				<g id="&lt;Group&gt;">
				</g>
				<g id="&lt;Group&gt;">
				</g>
				<g id="&lt;Group&gt;">
				</g>
				<g id="&lt;Group&gt;">
				</g>
				<g id="&lt;Group&gt;">
					<path id="&lt;Path&gt;" class="s0" d="m34.4 93.2c0 0-15.6 0-14.5 11.8 1.1 11.8 15.1 6.4 15.1 6.4 0 0 0.4 20.7 19.9 25.3 17.3 4.2 25.2-11.3 25.2-11.3 0 0-3.3 26.5 21.8 32.1 27.7 6.2 34.2-13.8 34.2-13.8 0 0 10.2 23.1 44.1 15.6 33.8-7.5 31.2-33.9 31.2-33.9 0 0 10.7 11.5 27.9 6.7 17.2-4.9 17.8-22.3 17.8-22.3 0 0 30.1 7.3 33.9-12.3 2.9-15.4-14.6-19.9-14.6-19.9 0 0 1.5-21.7-14.6-29.2-16.1-7.5-26.2 0.1-26.2 0.1 0 0-2.8-37.7-44.8-40.5-32.3-2.1-42.4 18.5-42.4 18.5 0 0-13.3-9.7-29.3 1.4-16.5 11.4-12.6 30.8-12.6 30.8 0 0-13.7-24.9-39.5-23-27.1 2-46.9 28.6-32.6 57.5z"/>
					<path id="&lt;Path&gt;" class="s1" d="m278.1 102.5c-17.3 6.2-26.7-3-26.7-3 0 0-2 8.8-14.1 15-12 6.2-23.1-2.9-23.1-2.9 6.2-4.6 8.5-14 8.5-14-12.1 14-37.5 4.9-37.5 4.9 3.9 8.4 18.6 10.1 18.6 10.1 0 0-1.3 20.5-25.7 26.7-24.5 6.2-38.1-11.4-38.1-11.4 11-2.3 16.2-15.3 16.2-15.3 8.2-2 12.4-10.5 12.4-10.5-14 10.1-29.6 0.4-29.6 0.4 2.9 5.8 10.4 8.4 10.4 8.4 0 0-3.2 8.5-17.6 8.8-14.3 0.4-22.1-11.4-22.1-11.4 2.9 13.1 18.2 19.9 18.2 19.9 0 0-6.2 18.6-27.7 13-21.5-5.5-17.9-29-17.9-29 0 0-10.1 15.7-26 13.7-16-1.9-19.3-22.1-19.3-22.1 0 0-4.2 5.8-11.7 3.6-3.1-1-4.5-4.1-5.1-7.5-1 1.6-1.5 3.6-1.3 6.1 1.1 11.8 15.1 6.4 15.1 6.4 0 0 0.4 20.7 19.9 25.3 17.3 4.2 25.2-11.3 25.2-11.3 0 0-3.3 26.5 21.8 32.1 27.7 6.2 34.2-13.8 34.2-13.8 0 0 10.2 23.1 44.1 15.6 33.8-7.5 31.2-33.9 31.2-33.9 0 0 10.7 11.5 27.9 6.7 17.2-4.9 17.8-22.3 17.8-22.3 0 0 30.1 7.3 33.9-12.3q0.1-0.7 0.2-1.4c-2.8 1.6-6.7 3.4-12.1 5.4z"/>
					<path id="&lt;Path&gt;" class="s2" d="m259.2 52c4.3 1.2 7.8 3 10.3 4.6-2.1-2.9-4.9-5.5-8.7-7.2-16.1-7.5-26.2 0.1-26.2 0.1 0 0-2.8-37.7-44.8-40.5-32.3-2.1-42.4 18.5-42.4 18.5 0 0-13.3-9.7-29.3 1.4-16.5 11.4-12.6 30.8-12.6 30.8 0 0-13.7-24.9-39.5-23-19.4 1.4-35.1 15.6-37.1 34.1 5.3-8.4 15.7-20.1 30-20.8 22.1-0.9 38.1 27.1 38.1 27.1 0 0 6.2-9.8 15.9-10.5 9.8-0.6 19.2 6.2 19.2 6.2 0 0-6.1-11.4-15.3-13.3 0 0 2.3-22.2 18.9-23.8 16.6-1.6 25.1 7.2 25.1 7.2 0 0-10.1 3.9-12.4 13 0 0 10.5-13.7 27.7-10.8 17.3 3 22.8 7.2 22.8 7.2 0 0-9.8-13.3-26-14.3 0 0 18.2-21.2 39.4-8.5 21.1 12.7 22.4 26.7 22.4 26.7 0 0 8.5-8.8 24.5-4.2z"/>
				</g>
				<g id="&lt;Group&gt;">
				</g>
				<g id="&lt;Group&gt;">
				</g>
				<g id="&lt;Group&gt;">
				</g>
				<g id="&lt;Group&gt;">
				</g>
				<g id="&lt;Group&gt;">
					<g id="&lt;Group&gt;">
					</g>
				</g>
				<g id="&lt;Group&gt;">
					<g id="&lt;Group&gt;">
						<path id="&lt;Path&gt;" class="s3" d="m-75.2 16.1c0-0.4-0.1-0.8-0.1-1.3 0 0 0 0.5 0.1 1.3z"/>
					</g>
				</g>
			</g>
		</g>
	</g>
</svg>