<svg version="1.2" xmlns="http://www.w3.org/2000/svg" viewBox="0 0 218 121" width="218" height="121">
	<title>5639947-ai</title>
	<style>
		.s0 { fill: #f5fcff } 
		.s1 { fill: #bde7ff } 
		.s2 { fill: #ffffff } 
	</style>
	<g id="BACKGROUND">
	</g>
	<g id="OBJECTS">
		<g id="&lt;Group&gt;">
			<g id="&lt;Group&gt;">
				<g id="&lt;Group&gt;">
				</g>
				<g id="&lt;Group&gt;">
				</g>
				<g id="&lt;Group&gt;">
				</g>
				<g id="&lt;Group&gt;">
				</g>
				<g id="&lt;Group&gt;">
					<path id="&lt;Path&gt;" class="s0" d="m38.4 62.4c0 0-6.2-1-8.7 6.5-2.7 8.1 5.6 12.4 5.6 12.4 0 0-1.4 15.3 16.8 20 18.4 4.8 24.5-10.8 24.5-10.8 0 0 5.8 9.6 20.3 9 17.1-0.8 18.9-10.2 18.9-10.2 0 0 1.8 20.9 24.6 23.7 22.9 2.8 31.4-18.5 31.4-18.5 0 0 29.5 8.5 32.9-10 2.8-15.5-9.6-17.2-9.6-17.2 0 0 5.3-19.9-13.5-30.6-18-10.3-30.6 2.6-30.6 2.6 0 0-3.2-26.2-38.1-28.3-28.9-1.7-37.1 22.3-37.1 22.3 0 0-8.5-6.4-18.9-0.4-10.4 6-6 20-6 20 0 0-12.5-5.8-12.5 9.5z"/>
					<path id="&lt;Path&gt;" class="s1" d="m204.7 84.5c0.2-1.3 0.3-2.5 0.3-3.6-1.8 2.8-6.6 7.6-17.7 8.8-15.7 1.7-20.7-6.7-20.7-6.7 0 0-8.8 17.2-25.9 14.8-17.1-2.4-18.6-20.2-18.6-20.2 6.7-0.5 11.4-7.2 11.4-7.2-15.9 6.9-27.1-1.1-27.1-1.1 3.4 7.8 8.8 7.6 8.8 7.6 0 0-4.5 9.2-18 11.9-13.6 2.6-18.4-5.3-18.4-5.3 7.2-3.1 9.1-11.4 9.1-11.4 0 0-2.2 4.8-13.8 6.2-11.7 1.4-13.3-6-13.3-6 0.2 8.8 5.7 11 5.7 11 0 0-5.3 9-16.7 5.7-11.4-3.3-8.8-15.2-8.8-15.2-7.2 0.5-10-2.7-11-5.6q-0.2 0.4-0.3 0.7c-2.7 8.1 5.6 12.4 5.6 12.4 0 0-1.4 15.3 16.8 20 18.4 4.8 24.5-10.8 24.5-10.8 0 0 5.8 9.6 20.3 9 17.1-0.8 18.9-10.2 18.9-10.2 0 0 1.8 20.9 24.6 23.7 22.9 2.8 31.4-18.5 31.4-18.5 0 0 29.5 8.5 32.9-10z"/>
					<path id="&lt;Path&gt;" class="s2" d="m194.1 51.1c-1.8-5.1-5.5-10.4-12.5-14.4-18-10.3-30.6 2.6-30.6 2.6 0 0-3.2-26.2-38.1-28.3-28.9-1.7-37.1 22.3-37.1 22.3 0 0-8.5-6.4-18.9-0.4-4.3 2.5-6 6.3-6.6 10 2.2-2.4 7-6.2 14.6-4.8 10.9 1.9 15 6.4 15 6.4 0 0-6 1.9-6 8.3 0 0 7.8-10.7 20.8-5 0 0-3.9-5.1-10-5.1 0 0 10.6-17.4 29.8-14.5 19.2 2.8 25.8 11.5 25.8 11.5 0 0-8.5 0.9-12.2 7.3 0 0 17.6-8.6 33.1 3.4 0 0-0.8-6.2-4.1-8.5 0 0 21.5-8.4 37 9.2z"/>
				</g>
				<g id="&lt;Group&gt;">
				</g>
				<g id="&lt;Group&gt;">
				</g>
				<g id="&lt;Group&gt;">
				</g>
				<g id="&lt;Group&gt;">
				</g>
				<g id="&lt;Group&gt;">
				</g>
				<g id="&lt;Group&gt;">
				</g>
				<g id="&lt;Group&gt;">
				</g>
				<g id="&lt;Group&gt;">
					<g id="&lt;Group&gt;">
						<path id="&lt;Path&gt;" class="s2" d="m-306.5 546.5q0 0 0 0c0 0 0 0 0 0z"/>
					</g>
				</g>
				<g id="&lt;Group&gt;">
					<g id="&lt;Group&gt;">
					</g>
				</g>
			</g>
		</g>
	</g>
</svg>