<svg version="1.2" xmlns="http://www.w3.org/2000/svg" viewBox="0 0 296 210" width="296" height="210">
	<title>5639947-ai</title>
	<style>
		.s0 { fill: #f5fcff } 
		.s1 { fill: #bde7ff } 
		.s2 { fill: #ffffff } 
	</style>
	<g id="BACKGROUND">
	</g>
	<g id="OBJECTS">
		<g id="&lt;Group&gt;">
			<g id="&lt;Group&gt;">
				<g id="&lt;Group&gt;">
				</g>
				<g id="&lt;Group&gt;">
				</g>
				<g id="&lt;Group&gt;">
				</g>
				<g id="&lt;Group&gt;">
				</g>
				<g id="&lt;Group&gt;">
				</g>
				<g id="&lt;Group&gt;">
				</g>
				<g id="&lt;Group&gt;">
					<path id="&lt;Path&gt;" class="s0" d="m25.8 123.5c0 0-21.1-3.8-19.6 12.9 1.6 16.5 23.2 10.3 23.2 10.3 0 0 7.5 19.9 33 24.8 31.6 6 45.4-13.4 45.4-13.4 0 0 5.6 9.8 21.1 11.3 15.4 1.5 25.2-10.8 25.2-10.8 0 0 7.8 14.4 33 13.9 25.3-0.5 34-21.6 34-21.6 0 0 8.5 11.5 24.2 8.7 20.2-3.5 20.1-22.1 20.1-22.1 0 0 28.9 0 25.3-19.1-3.6-19.1-26.3-8.8-26.3-8.8 0 0 2.1-25.9-27.8-35.5-17.9-5.8-29.9 0.5-29.9 0.5 0 0-9.3-52.6-62.9-55.2-53.6-2.5-63.9 50-63.9 50 0 0-15.4-7.7-28.3 4.2-12.9 11.8-8.8 25.7-8.8 25.7 0 0-24.2 2.6-17 24.2z"/>
					<path id="&lt;Path&gt;" class="s1" d="m289.9 126.8c-15.7 9.4-26-2.2-26-2.2 0 0-4.4 16.4-20.4 20.5-16.1 4.1-21.1-12.9-21.1-12.9 7.2-10.7 3.8-22.1 3.8-22.1 0 0 0.3 9.5-13.5 18.3-13.9 8.8-25.8 2.8-25.8 2.8 13.2 9.8 21.7 6.6 21.7 6.6 0 0-2.9 14.8-23 18.6-20.1 3.8-27.4-15.1-27.4-15.1 0 0-5.6 14.5-22 16-16.4 1.6-24.9-12.5-24.9-12.5 10.1-1 14.8-13.3 14.8-13.3-27.7 12.9-43.1-5.9-43.1-5.9 4.4 16 14.5 18.8 14.5 18.8 0 0-5.7 16.1-34.9 14.2-29.3-1.9-32.1-24.9-32.1-24.9 0 0-4.1 7.3-16.4 6.3-4.1-0.3-6.5-2.4-7.9-5.1q0 0.7 0 1.5c1.6 16.5 23.2 10.3 23.2 10.3 0 0 7.5 19.9 33 24.8 31.6 6 45.4-13.4 45.4-13.4 0 0 5.6 9.8 21.1 11.3 15.4 1.5 25.2-10.8 25.2-10.8 0 0 7.8 14.4 33 13.9 25.3-0.5 34-21.6 34-21.6 0 0 8.5 11.5 24.2 8.7 20.2-3.5 20.1-22.1 20.1-22.1 0 0 19.6-0.1 24.5-10.7z"/>
					<path id="&lt;Path&gt;" class="s2" d="m262.5 97.7c-2.8-8.2-9.5-18.3-25.9-23.6-17.9-5.8-29.9 0.5-29.9 0.5 0 0-9.3-52.6-62.9-55.2-53.6-2.5-63.9 50-63.9 50 0 0-15.4-7.7-28.3 4.2-5 4.6-7.4 9.5-8.5 13.8 4.3-4.9 11.2-11 18.8-11.2 12.9-0.3 23 6.9 23 6.9 0 0 9.8-30.2 37.1-35.6 27.4-5.3 38.1 21.1 38.1 21.1 0 0-16.7 5.1-21.7 19.8 0 0 17.6-10 34.6-7.5 17 2.5 23.3 14.8 23.3 14.8 0 0-1.9-15.8-13.2-20.5 0 0 19.8 1.9 27.7 18.6 0 0 29.4-9.7 51.7 3.9z"/>
				</g>
				<g id="&lt;Group&gt;">
				</g>
				<g id="&lt;Group&gt;">
				</g>
				<g id="&lt;Group&gt;">
				</g>
				<g id="&lt;Group&gt;">
				</g>
				<g id="&lt;Group&gt;">
				</g>
				<g id="&lt;Group&gt;">
					<g id="&lt;Group&gt;">
					</g>
				</g>
				<g id="&lt;Group&gt;">
					<g id="&lt;Group&gt;">
					</g>
				</g>
			</g>
		</g>
	</g>
</svg>