<svg version="1.2" xmlns="http://www.w3.org/2000/svg" viewBox="0 0 595 273" width="400" height="184">
	<title>5639947-ai</title>
	<style>
		.s0 { fill: #f5fcff } 
		.s1 { fill: #ffffff } 
		.s2 { fill: #bde7ff } 
	</style>
	<g id="BACKGROUND">
	</g>
	<g id="OBJECTS">
		<g id="&lt;Group&gt;">
			<g id="&lt;Group&gt;">
				<g id="&lt;Group&gt;">
					<path id="&lt;Path&gt;" class="s0" d="m68.1 134.6c0 0 0 13.6 20.3 22 20.3 8.5 45.7 0 45.7 0 0 0 0 27.1 27 35.5 27.1 8.5 37.2-8.4 37.2-8.4 0 0 0 15.2 30.5 27 30.4 11.8 64.2-3.4 64.2-3.4 0 0 8.9 59.3 74.4 57.5 77-2.1 87.9-59.2 87.9-59.2 0 0 11.9 8.5 50.8-3.3 38.9-11.9 45.6-55.8 45.6-55.8 0 0 44 3.3 38.9-25.4-5.1-28.7-38.9-20.3-38.9-20.3 0 0-13.5-50.7-71-65.9-57.5-15.3-103.1 37.2-103.1 37.2 0 0-1.7-28.8-40.6-42.3-38.9-13.5-67.6 10.1-67.6 10.1 0 0-11.1-35.9-50.8-33.8-34.4 1.9-45.6 42.3-45.6 42.3 0 0-11.9-8.5-40.6 0-28.7 8.4-33.8 50.7-33.8 50.7 0 0-13.9-19.5-42.3 1.7 0 0-41.9-19.4-43.3 15.6-1.3 32 55.1 18.2 55.1 18.2z"/>
					<path id="&lt;Path&gt;" class="s1" d="m585.9 109.5c-10.8-14.5-34.2-8.7-34.2-8.7 0 0-13.5-50.7-71-65.9-57.5-15.3-103.1 37.2-103.1 37.2 0 0-1.7-28.8-40.6-42.3-38.9-13.5-67.6 10.1-67.6 10.1 0 0-11.1-35.9-50.8-33.8-34.4 1.9-45.6 42.3-45.6 42.3 0 0-11.9-8.5-40.6 0-28.7 8.4-33.8 50.7-33.8 50.7 0 0-13.9-19.5-42.3 1.7 0 0-31.9-14.8-41 4.7 5.8-2.4 15.5-5 25.5-0.9 15.7 6.4 15.7 6.4 15.7 6.4 0 0 11.4-15.7 26.4-11.4 15 4.3 22.2 10.7 22.2 10.7 0 0 10.4-28.6 32.1-37.8 29.5-12.5 49.3 2.1 49.3 2.1 0 0 3-23.4 30.8-31.3 27.9-7.8 44.1 14.2 44.1 14.2 0 0 16-10.4 46-6.2 30 4.3 44 41.2 44 41.2 0 0 15-13.6 33.5-10 18.6 3.6 27.2 10 27.2 10 0 0 12.6-31.9 46.6-32.5 42.2-0.7 51.2 31.8 51.2 31.8 0 0 12.1-5 23.5 2.8 11.5 7.9 17.2 21.4 17.2 21.4 0 0 16.3-11.1 35.3-6.5z"/>
					<path id="&lt;Path&gt;" class="s2" d="m590.7 121.5c-2.5 3.8-6.1 8-11.6 11.7-15.7 10.7-33.5 4.3-33.5 4.3 0 0-7.9 32.8-20.7 35-12.9 2.1-32.9-3.6-32.9-3.6 0 0-15 22.1-32.8 24.3-8.9 1-16.1-1.3-21.2-3.8 10.1-6.1 14.4-20.6 14.4-20.6 0 0 11.9 7.8 26.1 1.4 14.2-6.4 9.7-24.3 9.7-24.3 0 0-5.1 19.2-18.8 18.3-13.8-0.9-20.6-10.5-20.6-10.5 0 0-7.4 19.2-22.5 17.4-15.1-1.8-21.5-19.7-21.5-19.7 0 0-24.3 18.3-43.1 0.4 0 0 1.3 16.1 19.2 16.1 17.9 0 20.6-3.7 20.6-3.7 0 0 1.4 21.6 22 27.1q1.1 0.2 2.2 0.4c-7.5 12.2-25.3 33.6-54.3 27.9-40-7.9-35-45-35-45 0 0-17.9 17.8-37.1 20-12.9 1.4-21.9-6-26.5-11.1 24.9-1.4 27.9-18.8 27.9-18.8 0 0 1.4 6.4 17 7.7 15.6 1.4 23.3-11.9 23.3-11.9 0 0-20.1 13.3-41.2-3.6 0 0-10.1 15.1-29.8 15.1-19.7 0-33-12.4-33-12.4 0 0 4.1 20.2 26.3 23.5-8.6 5.5-24.6 13.8-37.6 9.3-18.5-6.4-25.7-25.7-25.7-25.7 0 0-10.7 5-34.2-1.4-15.9-4.3-22.5-20-25-29 15.6 2.8 25.2-9.2 25.2-9.2 12.3 9.6 25.2-4.2 25.2-4.2 0 0-3.7 4.2-11.9 2.8-8.3-1.4-13.3-8.3-13.3-8.3 0 0-5.5 11.5-24.3 11-18.8-0.4-24.3-14.2-24.3-14.2 0 0 3.4 14.1 16.8 20-7 5.9-20.4 15.2-34.1 14.7-20-0.7-30-25.7-30-25.7 0 0-5 7.8-27.9 9.3-10.6 0.6-20.8-4.4-28.6-10 5.8 24 54.5 12.1 54.5 12.1 0 0 0 13.6 20.3 22 20.3 8.5 45.7 0 45.7 0 0 0 0 27.1 27 35.5 27.1 8.5 37.2-8.4 37.2-8.4 0 0 0 15.2 30.5 27 30.4 11.8 64.2-3.4 64.2-3.4 0 0 8.9 59.3 74.4 57.5 77-2.1 87.9-59.2 87.9-59.2 0 0 11.9 8.5 50.8-3.3 38.9-11.9 45.6-55.8 45.6-55.8 0 0 43.5 3.3 39-25z"/>
				</g>
				<g id="&lt;Group&gt;">
				</g>
				<g id="&lt;Group&gt;">
				</g>
				<g id="&lt;Group&gt;">
				</g>
				<g id="&lt;Group&gt;">
				</g>
				<g id="&lt;Group&gt;">
				</g>
				<g id="&lt;Group&gt;">
				</g>
				<g id="&lt;Group&gt;">
				</g>
				<g id="&lt;Group&gt;">
				</g>
				<g id="&lt;Group&gt;">
				</g>
				<g id="&lt;Group&gt;">
				</g>
				<g id="&lt;Group&gt;">
				</g>
				<g id="&lt;Group&gt;">
					<g id="&lt;Group&gt;">
						<path id="&lt;Path&gt;" class="s1" d="m-77.5 252.5q0 0 0 0c0 0 0 0 0 0z"/>
					</g>
				</g>
				<g id="&lt;Group&gt;">
					<g id="&lt;Group&gt;">
					</g>
				</g>
			</g>
		</g>
	</g>
</svg>