<svg version="1.2" xmlns="http://www.w3.org/2000/svg" viewBox="0 0 1000 1000" width="1000" height="1000">
	<title>5639947-ai</title>
	<style>
		.s0 { fill: #f5fcff } 
		.s1 { fill: #bde7ff } 
		.s2 { fill: #ffffff } 
	</style>
	<g id="BACKGROUND">
	</g>
	<g id="OBJECTS">
		<g id="&lt;Group&gt;">
			<g id="&lt;Group&gt;">
				<g id="&lt;Group&gt;">
				</g>
				<g id="&lt;Group&gt;">
				</g>
				<g id="&lt;Group&gt;">
				</g>
				<g id="&lt;Group&gt;">
				</g>
				<g id="&lt;Group&gt;">
				</g>
				<g id="&lt;Group&gt;">
				</g>
				<g id="&lt;Group&gt;">
				</g>
				<g id="&lt;Group&gt;">
				</g>
				<g id="&lt;Group&gt;">
				</g>
				<g id="&lt;Group&gt;">
				</g>
				<g id="&lt;Group&gt;">
				</g>
				<g id="&lt;Group&gt;">
					<path id="&lt;Path&gt;" class="s0" d="m131.4 203c0 0-39.7 11.1-61.8-11.1-23.9-23.9-12.5-64.9 9.9-76.1 24.3-12.2 39.4-3.4 39.4-3.4 0 0 2.3-34.9 36.1-44.9 39.7-11.7 53.7 14 53.7 14 0 0 19.9-24.3 53-15.4 33.2 8.8 33.9 47.1 33.9 47.1 0 0 29.4-5.9 46.4 8.8 16.9 14.7 11.7 37.6 11.7 37.6 0 0 17-5.2 24.3 10.3 7.4 15.4-5.8 30.9-26.5 27.9 0 0-9.5 28-53.7 27.3-44.2-0.8-46.4-38.3-46.4-38.3 0 0-11.8 19.1-31.6 18.4-19.9-0.7-27.3-19.9-27.3-19.9 0 0 5.1 23-18.7 31.3-29.5 10.3-42.4-13.6-42.4-13.6z"/>
					<path id="&lt;Path&gt;" class="s1" d="m377.9 187.1c-14.9 7.6-35.2 1.2-35.2 1.2 11-3.7 8.8-13.6 8.8-13.6 0 0-1.8 6.6-12.8 8-11.1 1.5-17-7.3-17-7.3 4.8 12.5 10.7 12.9 10.7 12.9 0 0-5.2 23.2-38.3 20.6-33.1-2.6-34.2-32.8-34.2-32.8 24.3-2.2 28.3-24.6 28.3-24.6 0 0-7.3 11-27.9 12.1-20.7 1.1-29.9-13.6-29.9-13.6 1.1 14.7 17 22.4 17 22.4 0 0-5.5 15.5-27.6 17-22.1 1.4-30.2-18.4-30.2-18.4 0 0-4.4 26.8-28.4 29.4-23.9 2.6-27.9-17.7-27.9-17.7 15.4-2.2 19.8-15 19.8-15 0 0-9.2 7.7-25 5.8-15.8-1.8-18.8-17.3-18.8-17.3-1.8 16.6 8.9 22.1 8.9 22.1 0 0-13.6 15.5-40.1 4.8-13.7-5.5-19.1-20-21-33.1-2.4 14.4 0.8 30.2 12.5 41.9 22.1 22.2 61.8 11.1 61.8 11.1 0 0 12.9 23.9 42.4 13.6 23.8-8.3 18.7-31.3 18.7-31.3 0 0 7.4 19.2 27.3 19.9 19.8 0.7 31.6-18.4 31.6-18.4 0 0 2.2 37.5 46.4 38.3 44.2 0.7 53.7-27.3 53.7-27.3 12.5 1.8 22.2-3.1 26.4-10.7z"/>
					<path id="&lt;Path&gt;" class="s2" d="m342 122c-17-14.7-46.4-8.8-46.4-8.8 0 0-0.7-38.3-33.9-47.1-33.1-8.9-53 15.4-53 15.4 0 0-14-25.7-53.7-14-33.8 10-36.1 44.9-36.1 44.9 0 0-15.1-8.8-39.4 3.4-3.6 1.8-6.8 4.4-9.8 7.5 8.2-2.9 20.6-6.4 29.4-4.7 14.4 2.8 24.8 15 25.2 12.9 0.3-2 2.1-45.7 34.2-50.6 32.2-4.9 39.5 16.4 39.5 16.4 0 0-16.4 4.6-14.3 24.5 0 0 8-20.6 26.2-17.8 18.1 2.7 18.8 17.8 18.8 17.8 0 0 4.2-18.5-14.3-25.9 0 0 11.5-25.5 40.9-17.4 29.3 8 32.5 44.3 32.5 44.3 0 0 17.1-9.1 37.7-1.4 18.1 6.8 27 23.7 28.9 27.8-0.3-7.9-2.9-18.9-12.4-27.2z"/>
				</g>
				<g id="&lt;Group&gt;">
					<g id="&lt;Group&gt;">
					</g>
				</g>
				<g id="&lt;Group&gt;">
					<g id="&lt;Group&gt;">
					</g>
				</g>
			</g>
		</g>
	</g>
</svg>