<svg version="1.2" xmlns="http://www.w3.org/2000/svg" viewBox="0 0 218 153" width="218" height="153">
	<title>5639947-ai</title>
	<style>
		.s0 { fill: #f5fcff } 
		.s1 { fill: #bde7ff } 
		.s2 { fill: #ffffff } 
	</style>
	<g id="BACKGROUND">
	</g>
	<g id="OBJECTS">
		<g id="&lt;Group&gt;">
			<g id="&lt;Group&gt;">
				<g id="&lt;Group&gt;">
				</g>
				<g id="&lt;Group&gt;">
				</g>
				<g id="&lt;Group&gt;">
				</g>
				<g id="&lt;Group&gt;">
				</g>
				<g id="&lt;Group&gt;">
				</g>
				<g id="&lt;Group&gt;">
				</g>
				<g id="&lt;Group&gt;">
				</g>
				<g id="&lt;Group&gt;">
				</g>
				<g id="&lt;Group&gt;">
				</g>
				<g id="&lt;Group&gt;">
				</g>
				<g id="&lt;Group&gt;">
					<path id="&lt;Path&gt;" class="s0" d="m23.6 81.3c0 0-13-3.6-17.7 9.1-3.8 10-0.6 17.8 9.1 22.7 9.7 4.8 22.1 0.5 22.1 0.5 0 0-2.2 19.6 24.2 25.9 23.1 5.4 33.4-13 33.4-13 0 0 13.4 12.7 36.6 3.3 17.2-7 19.9-23.2 19.9-23.2 0 0 14.6 7.6 27 0 12.3-7.5 10.7-16.7 10.7-16.7 0 0 18.2 3.5 21.7-9 3.1-11.3-7.7-16.3-7.7-16.3 0 0 6.8-28.9-18.5-33.2-25.3-4.3-30.9 19.2-30.9 19.2 0 0-12.9-18.6-33.5-7.5-11.9 6.5-11.8 15.6-11.8 15.6 0 0-9.2-31.8-35.6-32.8-26.3-1.1-26.9 24.7-26.9 24.7 0 0-8.6-4.3-18.8 4.3-10.2 8.7-3.3 26.4-3.3 26.4z"/>
					<path id="&lt;Path&gt;" class="s1" d="m211 75.5c-1.4 2.9-4 6.1-8.9 8.2-10.5 4.4-17.4-2.5-17.4-2.5 0 0 0 10.7-8.8 18.6-8.9 7.9-21.8 0.3-21.8 0.3 9.5-6 9.2-14.5 9.2-14.5-16.1 17.4-36.3 5.7-36.3 5.7 5.4 8.2 14.2 10.7 14.2 10.7 0 0-3.2 18.3-20.8 20.8-17.7 2.6-22.4-5.3-22.4-5.3 9.1-3.8 9.8-15.8 9.8-15.8 0 0-2.9 6.6-16.1 7.6-13.3 0.9-19.9-7.3-19.9-7.3 1.3 8.8 10.4 14.8 10.4 14.8 0 0-4.1 11.1-24.6 7.9-20.5-3.1-15.1-26.2-15.1-26.2 0 0-6.6 12.3-23.7 9.2-7.9-1.5-12.1-6.1-14.4-10.6-0.4 6.8 3.2 12.3 10.6 16 9.7 4.8 22.1 0.5 22.1 0.5 0 0-2.2 19.6 24.2 25.9 23.1 5.4 33.4-13 33.4-13 0 0 13.4 12.7 36.6 3.3 17.2-7 19.9-23.2 19.9-23.2 0 0 14.6 7.6 27 0 12.3-7.5 10.7-16.7 10.7-16.7 0 0 18.2 3.5 21.7-9 0.5-2 0.6-3.8 0.4-5.4z"/>
					<path id="&lt;Path&gt;" class="s2" d="m203.2 49.9c-1.4-7.9-6-16.3-18.8-18.5-25.3-4.3-30.9 19.2-30.9 19.2 0 0-12.9-18.6-33.5-7.5-11.9 6.5-11.8 15.6-11.8 15.6 0 0-9.2-31.8-35.6-32.8-26.3-1.1-26.9 24.7-26.9 24.7 0 0-8.6-4.3-18.8 4.3-6.2 5.3-6.1 13.9-5 19.8 1-4.4 3.9-13.3 11-15.6 9.7-3.1 17.2 4.7 17.2 4.7 0 0 6.2-22.4 25.7-19.8 19.6 2.6 26.2 19.1 26.2 19.1 0 0-9.7 2.8-10.4 13.9 0 0 7.3-7.3 16.7-7.1 9.5 0.3 16.8 4.1 16.8 4.1 0 0-3.8-9.5-12-11.6 0 0 12.4-16 27-11.3 14.7 4.7 17.7 9.7 17.7 9.7 0 0 4-20.8 20.3-21.7 13.5-0.8 22.5 7.9 25.1 10.8z"/>
				</g>
				<g id="&lt;Group&gt;">
				</g>
				<g id="&lt;Group&gt;">
					<g id="&lt;Group&gt;">
						<path id="&lt;Path&gt;" class="s2" d="m-188.5 19.5q0 0 0 0c0 0 0 0 0 0z"/>
						<path id="&lt;Path&gt;" class="s2" d="m-160.4 18.1c0-0.3 0-0.5 0-0.8 0 0-0.1 0.3 0 0.8z"/>
					</g>
				</g>
				<g id="&lt;Group&gt;">
					<g id="&lt;Group&gt;">
					</g>
				</g>
			</g>
		</g>
	</g>
</svg>