<svg version="1.2" xmlns="http://www.w3.org/2000/svg" viewBox="0 0 375 194" width="510" height="264">
	<title>5639947-ai</title>
	<style>
		.s0 { fill: #f5fcff } 
		.s1 { fill: #bde7ff } 
		.s2 { fill: #ffffff } 
		.s3 { fill: #bcd1ca } 
	</style>
	<g id="BACKGROUND">
	</g>
	<g id="OBJECTS">
		<g id="&lt;Group&gt;">
			<g id="&lt;Group&gt;">
				<g id="&lt;Group&gt;">
				</g>
				<g id="&lt;Group&gt;">
				</g>
				<g id="&lt;Group&gt;">
				</g>
				<g id="&lt;Group&gt;">
				</g>
				<g id="&lt;Group&gt;">
				</g>
				<g id="&lt;Group&gt;">
				</g>
				<g id="&lt;Group&gt;">
				</g>
				<g id="&lt;Group&gt;">
				</g>
				<g id="&lt;Group&gt;">
					<path id="&lt;Path&gt;" class="s0" d="m35.8 142.9c0 0-14.6-7-20.2 4.2-5.6 11.2 7 18.9 16.7 16.8 0 0 4.2 18.2 26.6 20.3 22.4 2.1 32.2-11.2 32.2-11.2 0 0 3.8 13.7 35.6 16.1 27.6 2 47.6-15.4 47.6-15.4 0 0 11.4 15.2 43.6 15.2 32.2 0 48.7-21.5 48.7-21.5 0 0 24.5 17.5 67.1 2.1 42.7-15.4 49-84.6 13.3-111.9-35.7-27.3-57.3-9.8-57.3-9.8 0 0-22.9-54.2-78.4-41.2-57.7 13.4-49.6 68.5-49.6 68.5 0 0-19.9-11.2-37.1 2.1-12.9 9.9-11.8 23.1-11.8 23.1 0 0-21-10.5-37.8-2.8-16.8 7.6-16.1 25.8-16.1 25.8 0 0-8.9-7.7-18.4 0.7-8.6 7.7-4.7 18.9-4.7 18.9z"/>
					<path id="&lt;Path&gt;" class="s1" d="m308 158.2c-36.8-3.4-40.7-26.3-40.7-26.3 0 0-14.5 39.7-45.8 40.2-31.3 0.6-41.3-16.2-41.3-16.2 19.5-5 23.4-25.1 23.4-25.1 0 0-6.1 10.1-30.1 14-24 3.9-35.2-7.8-35.2-7.8 5.6 12.8 17.9 17.8 17.9 17.8 0 0-2.8 10.6-29 15.7-26.3 5-31.8-10.1-31.8-10.1 10.6-1.7 16.1-12.8 16.1-12.8-29.5 12.2-43.5-2.3-43.5-2.3 1.1 10.1 12.8 15.1 12.8 15.1 0 0-5 14-24 12.3-18.9-1.7-23.4-20.1-23.4-20.1 0 0-2.8 3.3-10.6 2.2-3.4-0.5-5.9-3.4-7.7-6.6-4.3 10.6 7.8 17.7 17.2 15.7 0 0 4.2 18.2 26.6 20.3 22.4 2.1 32.2-11.2 32.2-11.2 0 0 3.8 13.7 35.6 16.1 27.6 2 47.6-15.4 47.6-15.4 0 0 11.4 15.2 43.6 15.2 32.2 0 48.7-21.5 48.7-21.5 0 0 24.5 17.5 67.1 2.1 16.5-6 27.6-20 32.9-36.6-12 11.2-34 27.5-58.6 25.3z"/>
					<path id="&lt;Path&gt;" class="s2" d="m356.3 66.8c-2.7-3.4-5.8-6.5-9.3-9.2-35.7-27.3-57.3-9.8-57.3-9.8 0 0-22.9-54.2-78.4-41.2-57.7 13.4-49.6 68.5-49.6 68.5 0 0-19.9-11.2-37.1 2.1-12.9 9.9-11.8 23.1-11.8 23.1 0 0-21-10.5-37.8-2.8-8.8 4-12.8 10.9-14.6 16.6 4.4-4 12.6-9.5 24.9-8.4 19 1.7 29.6 11.7 29.6 11.7 0 0 3.3-32.9 23.4-37.4 20.1-4.4 31.9 12.9 31.9 12.9 0 0-10.7 6.7-11.2 17.3 0 0 26.2-26.8 55.8-10.6 0 0-16.7-14.5-32.9-12.3 0 0 8.3-59.2 50.2-54.7 41.9 4.4 49.7 27.9 49.7 27.9 0 0 27.5-20.1 74.5 6.3z"/>
				</g>
				<g id="&lt;Group&gt;">
				</g>
				<g id="&lt;Group&gt;">
				</g>
				<g id="&lt;Group&gt;">
				</g>
				<g id="&lt;Group&gt;">
					<g id="&lt;Group&gt;">
						<path id="&lt;Path&gt;" class="s2" d="m-489.5 79.5q0 0 0 0c0 0 0 0 0 0z"/>
						<path id="&lt;Path&gt;" class="s2" d="m-461.4 78.1c0-0.3 0-0.5 0-0.8 0 0-0.1 0.3 0 0.8z"/>
					</g>
				</g>
				<g id="&lt;Group&gt;">
					<g id="&lt;Group&gt;">
						<path id="&lt;Path&gt;" class="s3" d="m-1.2 249.1c0-0.4-0.1-0.8-0.1-1.3 0 0 0 0.5 0.1 1.3z"/>
					</g>
				</g>
			</g>
		</g>
	</g>
</svg>