<svg version="1.2" xmlns="http://www.w3.org/2000/svg" viewBox="0 0 513 236" width="513" height="236">
	<title>5639947-ai</title>
	<style>
		.s0 { fill: #f5fcff } 
		.s1 { fill: #bde7ff } 
		.s2 { fill: #ffffff } 
	</style>
	<g id="BACKGROUND">
	</g>
	<g id="OBJECTS">
		<g id="&lt;Group&gt;">
			<g id="&lt;Group&gt;">
				<g id="&lt;Group&gt;">
				</g>
				<g id="&lt;Group&gt;">
				</g>
				<g id="&lt;Group&gt;">
				</g>
				<g id="&lt;Group&gt;">
					<path id="&lt;Path&gt;" class="s0" d="m51.8 111.9c0 0-29.6-11.9-41.5 2.3-11.9 14.3 2.4 35.6 36.8 28.5 0 0 3.6 39.2 49.8 43.9 46.3 4.8 58.2-21.3 58.2-21.3 0 0 5.2 51.8 67.6 62.9 58.9 10.4 83.1-42.7 83.1-42.7 0 0 25.3 24.6 66.9 13.9 41.5-10.7 47.1-35.3 47.1-35.3 0 0 59.5 17.1 72.3-26.1 13.9-46.6-54.5-58.2-54.5-58.2 0 0 2-43.9-42.8-56.9-32.8-9.6-53.4 23.7-53.4 23.7 0 0-25.4-23.9-60.4-8.8-30.2 13-31 37.3-31 37.3 0 0-5-56.2-64.3-64.5-59.4-8.3-74.5 41.9-74.5 41.9 0 0-57-5.9-59.4 59.4z"/>
					<path id="&lt;Path&gt;" class="s1" d="m490 143.3c-27.2 23.5-67.3 10.3-67.3 10.3 15.7-7.9 18.7-33.2 18.7-33.2 0 0-9 18.7-32.5 24.1-23.6 5.4-38.6-15.1-38.6-15.1 6 19.3 24.7 26 24.7 26 0 0-20.5 23.5-50.1 26.5-29.5 3-44-10.8-44-10.8 15.7-6.1 22.9-19.9 22.9-19.9 15.7-1.9 21.7-13.9 21.7-13.9-31.3 12.6-51.2-1.8-51.2-1.8 4.8 8.4 19.3 13.8 19.3 13.8 0 0-2.5 8.5-24.2 13.9-21.7 5.4-41.6-6.6-41.6-6.6 11.5 15.1 33.8 19.3 33.8 19.3 0 0-28.4 28.3-68.2 20.5-39.8-7.8-47-44-47-44 15.1-3.1 27.7-18.1 27.7-18.1-51.2 19.9-78.4-12.1-78.4-12.1 4.2 19.3 15.7 25.9 15.7 25.9 0 0-16.3 19.3-45.8 12.7-29.6-6.6-31.4-34.4-31.4-34.4 0 0-13.9 12.7-32.6 6.7-7.9-2.6-12.2-7.8-14.6-12.9-4.4 13.5 10.3 28.7 40.1 22.5 0 0 3.6 39.2 49.8 43.9 46.3 4.8 58.2-21.3 58.2-21.3 0 0 5.2 51.8 67.6 62.9 58.9 10.4 83.1-42.7 83.1-42.7 0 0 25.3 24.6 66.9 13.9 41.5-10.7 47.1-35.3 47.1-35.3 0 0 54.2 15.5 70.2-20.8z"/>
					<path id="&lt;Path&gt;" class="s2" d="m437.6 79.8c0 0 2-43.9-42.8-56.9-32.8-9.6-53.4 23.7-53.4 23.7 0 0-25.4-23.9-60.4-8.8-30.2 13-31 37.3-31 37.3 0 0-5-56.2-64.3-64.5-59.4-8.3-74.5 41.9-74.5 41.9 0 0-40.7-4.2-54.7 33.8 6.3-6.3 20.4-18.8 33.3-19.4 17.4-0.8 26.7 6.5 26.7 6.5 0 0 9.7-31.9 53.7-31.9 44 0 53.7 51.7 53.7 51.7 0 0 15.8-14.6 34.7-10.1 19 4.4 22.7 10.1 22.7 10.1 0 0-1.3-26.3 22.6-33.9 23.8-7.7 36.3 8.4 36.3 8.4 0 0-13.3 3.7-19.4 18.6 0 0 26.7-19 50.1-6.5 0 0-9.7-11.7-19.4-12.1 0 0 10.5-26.2 36-24.2 25.4 2 41.6 44 41.6 44 0 0 20.7-1.4 41.8 4.5-15.6-9.1-33.3-12.2-33.3-12.2z"/>
				</g>
				<g id="&lt;Group&gt;">
				</g>
				<g id="&lt;Group&gt;">
				</g>
				<g id="&lt;Group&gt;">
				</g>
				<g id="&lt;Group&gt;">
				</g>
				<g id="&lt;Group&gt;">
				</g>
				<g id="&lt;Group&gt;">
				</g>
				<g id="&lt;Group&gt;">
				</g>
				<g id="&lt;Group&gt;">
				</g>
				<g id="&lt;Group&gt;">
					<g id="&lt;Group&gt;">
						<path id="&lt;Path&gt;" class="s2" d="m34.5-99.5q0 0 0 0c0 0 0 0 0 0z"/>
						<path id="&lt;Path&gt;" class="s2" d="m62.6-100.9c0-0.3 0-0.5 0-0.8 0 0-0.1 0.3 0 0.8z"/>
					</g>
				</g>
				<g id="&lt;Group&gt;">
					<g id="&lt;Group&gt;">
					</g>
				</g>
			</g>
		</g>
	</g>
</svg>